<svg xmlns="http://www.w3.org/2000/svg" width="84.998" height="84.998" viewBox="0 0 84.998 84.998">
    <path fill="#24bbd6" d="M42.499 6.499c-19.883 0-36 16.117-36 36s16.118 36 36 36 36-16.117 36-36-16.117-36-36-36zm18.105 29.464c.527 11.744-8.229 24.838-23.733 24.838a23.634 23.634 0 0 1-12.799-3.752 16.782 16.782 0 0 0 12.361-3.458 8.354 8.354 0 0 1-7.799-5.798 8.36 8.36 0 0 0 3.77-.143c-4.016-.809-6.787-4.426-6.697-8.294a8.325 8.325 0 0 0 3.783 1.045c-3.719-2.484-4.771-7.396-2.584-11.147 4.117 5.052 10.271 8.376 17.209 8.725-1.217-5.224 2.746-10.253 8.135-10.253a8.339 8.339 0 0 1 6.095 2.638 16.717 16.717 0 0 0 5.302-2.026 8.366 8.366 0 0 1-3.671 4.619 16.685 16.685 0 0 0 4.796-1.314 17.034 17.034 0 0 1-4.168 4.32z"/>
</svg>
